<?xml version="1.0" encoding="utf-8"?>
<!-- Generator: Adobe Illustrator 21.1.0, SVG Export Plug-In . SVG Version: 6.00 Build 0)  -->
<svg version="1.1"
	 id="svg2" xmlns:cc="http://creativecommons.org/ns#" xmlns:dc="http://purl.org/dc/elements/1.1/" xmlns:rdf="http://www.w3.org/1999/02/22-rdf-syntax-ns#" xmlns:svg="http://www.w3.org/2000/svg"
	 xmlns="http://www.w3.org/2000/svg" xmlns:xlink="http://www.w3.org/1999/xlink" x="0px" y="0px" viewBox="0 0 1417.3 239.2"
	 style="enable-background:new 0 0 1417.3 239.2;" xml:space="preserve">
<style type="text/css">
	.st0{fill:#31313E;}
	.st1{fill:#ED1C24;}
</style>
<g id="g10" transform="matrix(1.3333333,0,0,-1.3333333,0,99.653333)">
	<g id="g12" transform="scale(0.1)">
		<path id="path14" class="st0" d="M3795.9-832.3c-9.2-9.3-24.3-20.8-45.1-34.7c-20.8-13.9-48.9-27.7-84.4-41.6
			c-35.5-13.9-78.2-25.8-128.2-35.8c-50.1-10-107.5-15-172.2-15c-124.8,0-232.6,20-323.5,60.1c-90.9,40-166,95.9-225.3,167.5
			c-59.3,71.7-102.8,156.3-130.5,254.2c-27.7,97.8-41.6,205.3-41.6,322.4c0,117,15,225.3,45.1,324.6
			c30.1,99.4,75.1,185.2,135.2,257.6c60.1,72.4,135.2,129,225.3,169.9c90.1,40.8,196,61.2,317.7,61.2c60.1,0,114.4-5.4,162.9-16.2
			c48.5-10.8,90.9-23.5,127.1-38.1c36.2-14.7,66.2-30.1,90.1-46.2c23.9-16.2,42-29.7,54.3-40.5c13.9-12.3,25.8-27,35.8-43.9
			c10-17,15-35.4,15-55.5c0-30.8-11.5-61.6-34.7-92.4c-23.1-30.8-48.5-59.3-76.3-85.5c-18.5,18.5-39.3,37.3-62.4,56.6
			c-23.1,19.2-48.9,36.2-77.4,50.8c-28.5,14.6-60.9,26.9-97,37c-36.2,10-76.6,15-121.3,15c-78.6,0-144.4-15.8-197.6-47.4
			c-53.1-31.6-95.9-72.8-128.2-123.6c-32.4-50.8-55.5-109-69.3-174.5c-13.9-65.5-20.8-132.1-20.8-199.9c0-72.4,6.9-141.7,20.8-208
			c13.9-66.3,37.7-124.8,71.6-175.6c33.9-50.8,78.2-91.7,132.9-122.5c54.7-30.8,122.8-46.2,204.5-46.2c43.1,0,82.8,5.4,119,16.2
			c36.2,10.7,68.2,23.8,95.9,39.3c27.7,15.4,52,31.5,72.8,48.5c20.8,16.9,38.1,31.5,52,43.9c9.2-10.8,20-23.9,32.4-39.3
			c12.3-15.4,23.9-31.6,34.7-48.5c10.8-17,20-33.9,27.7-50.8c7.7-17,11.5-32.4,11.5-46.2c0-20-3.9-37-11.5-50.9
			C3825.2-800,3812.9-815.4,3795.9-832.3"/>
		<path id="path16" class="st0" d="M4638.6-370.2c0,41.6-3.1,82.8-9.2,123.6c-6.2,40.8-17.7,76.6-34.6,107.4
			c-17,30.8-40.1,55.8-69.3,75.1c-29.3,19.3-66.2,28.9-110.9,28.9c-44.7,0-82-10-112.1-30c-30-20-53.9-45.9-71.6-77.4
			c-17.7-31.6-30.4-67.4-38.1-107.5c-7.7-40.1-11.5-80.9-11.5-122.5c0-41.6,3.5-83.2,10.4-124.8c6.9-41.6,18.8-79,35.8-112.1
			c16.9-33.1,40.4-59.7,70.5-79.7c30.1-20,67.4-30.1,112.1-30.1c46.2,0,84.4,10,114.4,30.1c30.1,20,53.5,46.6,70.5,79.7
			c16.9,33.1,28.5,70.5,34.6,112.1C4635.5-455.7,4638.6-413.3,4638.6-370.2z M4955.2-367.9c0-77-9.6-151-28.9-221.8
			c-19.3-70.9-50.8-133.2-94.7-187.2c-43.9-53.9-100.5-97-169.8-129.4c-69.3-32.3-153.3-48.5-251.9-48.5
			c-98.6,0-182.2,15.8-250.7,47.4c-68.6,31.6-124.4,73.9-167.5,127.1c-43.1,53.1-74.7,114.7-94.7,184.8c-20,70.1-30,143.6-30,220.7
			c0,78.5,11.6,152.9,34.7,223c23.1,70.1,57.4,131.7,102.8,184.8c45.4,53.2,102.9,95.1,172.2,125.9c69.3,30.8,150.2,46.2,242.6,46.2
			c97,0,179.8-15.4,248.4-46.2c68.5-30.8,124-72.4,166.4-124.8c42.3-52.4,73.1-113.2,92.4-182.6
			C4945.6-217.7,4955.2-290.9,4955.2-367.9"/>
		<path id="path18" class="st0" d="M5388.5-920.1H5072v1093l27.7,4.6c9.2,1.5,20,2.7,32.3,3.5c12.3,0.8,26.9,1.2,43.9,1.2
			c49.3,0,92-8.9,128.3-26.6c36.2-17.7,58.9-48.9,68.2-93.6c26.2,35.4,66.2,68.2,120.1,98.2c53.9,30,127.1,45.1,219.5,45.1
			c109.4,0,190.2-21.6,242.6-64.7c52.4-43.1,86.2-100.1,101.7-171c7.7-35.5,12.7-73.9,15-115.5c2.3-41.6,3.5-82.4,3.5-122.5v-651.6
			h-314.3v637.7c0,33.9-1.2,65.5-3.5,94.8c-2.3,29.3-8.5,54.3-18.5,75.1c-10.1,20.8-26.2,36.9-48.5,48.5
			c-22.3,11.6-53.5,17.3-93.6,17.3c-57,0-105.9-12-146.7-35.8c-40.8-23.9-61.3-53.5-61.3-89V-920.1"/>
		<path id="path20" class="st0" d="M6823.3-931.7h-335.1L6106.9,152c49.3,20,104.7,30,166.4,30c37,0,67.4-5.4,91.3-16.2
			c23.9-10.8,43.9-25.4,60.1-43.9c16.2-18.5,29.2-41.2,39.3-68.2c10-27,19.6-56.6,28.9-89l166.4-596.2l175.6,603.1
			c18.5,66.2,41.6,117.8,69.3,154.8c27.7,37,74,55.5,138.6,55.5c30.8,0,60.1-3.1,87.8-9.2c27.8-6.2,50.9-13.1,69.4-20.8
			L6823.3-931.7"/>
		<path id="path22" class="st0" d="M7894.9-254.7c0,73.9-14.3,134-42.8,180.2c-28.5,46.2-79.7,69.3-153.7,69.3
			c-64.7,0-115.5-21.9-152.5-65.8c-37-43.9-55.5-105.1-55.5-183.7L7894.9-254.7z M7790.9-723.7c38.5,0,72.4,4.2,101.7,12.7
			c29.3,8.5,55.5,18.8,78.6,31.2c23.1,12.3,43.1,25.8,60.1,40.5c16.9,14.6,32.4,28.1,46.3,40.4c18.5-23.1,37.7-52.8,57.7-89
			c20-36.2,30.1-65.8,30.1-89c0-33.9-19.3-64.7-57.8-92.4c-32.4-24.6-78.2-45.9-137.5-63.6c-59.3-17.7-129-26.6-209.1-26.6
			c-72.4,0-143.6,9.2-213.7,27.7c-70.1,18.5-132.5,50.8-187.2,97c-54.7,46.2-99,108.2-132.9,186c-33.9,77.8-50.9,176-50.9,294.6
			c0,97,15.1,180.6,45.1,250.7c30,70.1,70,128.2,120.1,174.5c50,46.2,106.7,80.1,169.9,101.7c63.1,21.6,127.8,32.4,194.1,32.4
			c86.3,0,159.4-13.5,219.5-40.5c60.1-27,109-63.2,146.7-108.6c37.7-45.5,65-97.5,82-156c16.9-58.5,25.4-120.1,25.4-184.8
			c0-9.2,0-20,0-32.4c0-12.3-0.4-25.4-1.2-39.3c-0.8-13.9-1.5-27.4-2.3-40.5c-0.8-13.1-1.9-23.5-3.4-31.2h-679.3
			c6.1-84.7,32.3-155.2,78.6-211.4C7617.6-695.6,7690.7-723.7,7790.9-723.7"/>
		<path id="path24" class="st0" d="M8591.9,64.2c9.2,13.9,21.9,29.2,38.1,46.2c16.2,16.9,35,32.4,56.6,46.2
			c21.6,13.9,45.8,25.4,72.8,34.7c26.9,9.2,55.8,13.9,86.7,13.9c18.5,0,38.1-1.6,58.9-4.6c20.8-3.1,40-8.9,57.7-17.3
			c17.7-8.5,32-20,42.8-34.6c10.8-14.7,16.1-32.8,16.1-54.3c0-32.3-8.5-70.9-25.3-115.5c-17-44.7-33.9-82.4-50.9-113.2
			c-26.2,21.5-52.4,38.1-78.6,49.7c-26.2,11.6-57,17.3-92.4,17.3c-47.8,0-87.8-13.9-120.2-41.6c-32.3-27.7-48.5-60.9-48.5-99.4
			v-711.7h-314.2v1093l27.7,4.6c9.3,1.5,20,2.7,32.4,3.5c12.3,0.8,26.9,1.2,43.9,1.2c49.3,0,92-9.7,128.3-28.9
			C8560,133.9,8582.7,104.3,8591.9,64.2"/>
		<path id="path26" class="st0" d="M9116.4-753.7c-10.8,30.8-17.7,63.1-20.8,97c-3.1,33.9-4.6,67.8-4.6,101.7V517.1l34.7,4.6
			c10.8,1.5,22.3,2.7,34.7,3.5c12.3,0.8,24.6,1.1,37,1.1c24.6,0,49.3-2.3,73.9-6.9c24.6-4.6,47-13.9,67-27.7
			c20-13.9,36.2-32.8,48.5-56.6c12.3-23.9,18.5-55.1,18.5-93.6V179.8h323.5V-55.9h-323.5v-494.5c0-107.9,43.9-161.7,131.7-161.7
			c21.6,0,42,3.5,61.2,10.4c19.2,6.9,37,14.6,53.1,23.1c16.2,8.4,29.6,17.3,40.4,26.6c10.8,9.3,18.5,16.2,23.1,20.8
			c23.1-33.9,40.8-63.2,53.1-87.8c12.3-24.6,18.5-47.7,18.5-69.3c0-20-8.1-39.7-24.3-58.9c-16.2-19.3-38.9-37-68.2-53.2
			c-29.3-16.2-64.7-29.2-106.3-39.3c-41.6-10-87.1-15-136.3-15c-97,0-171.8,18.5-224.1,55.4C9175-862.4,9138-813.8,9116.4-753.7"/>
		<path id="path28" class="st0" d="M10200.1,64.2c9.3,13.9,22,29.2,38.1,46.2c16.2,16.9,35,32.4,56.7,46.2
			c21.5,13.9,45.8,25.4,72.7,34.7c26.9,9.2,55.9,13.9,86.7,13.9c18.5,0,38.1-1.6,58.9-4.6c20.8-3.1,40-8.9,57.8-17.3
			c17.7-8.5,32-20,42.8-34.6c10.7-14.7,16.2-32.8,16.2-54.3c0-32.3-8.5-70.9-25.4-115.5c-17-44.7-33.9-82.4-50.8-113.2
			c-26.3,21.5-52.4,38.1-78.6,49.7c-26.2,11.6-57,17.3-92.4,17.3c-47.8,0-87.8-13.9-120.2-41.6c-32.4-27.7-48.5-60.9-48.5-99.4
			v-711.7h-314.2v1093l27.8,4.6c9.2,1.5,20,2.7,32.3,3.5c12.3,0.8,26.9,1.2,43.9,1.2c49.2,0,92-9.7,128.2-28.9
			C10168.1,133.9,10190.9,104.3,10200.1,64.2"/>
		<path id="path30" class="st1" d="M1674.6-535.4c0,120.3-97.5,217.9-217.8,217.9c-75.8,0-142.5-38.6-181.5-97.3
			c-83.5-119-221.7-196.9-378.3-196.9c-255.2,0-462.2,206.9-462.2,462.1c0,255.2,207,462.1,462.2,462.1
			c156.4,0,294.5-77.8,378.1-196.7c1.5-2.2,3.2-4.2,4.6-6.4c0.6-0.8,1.1-1.7,1.7-2.4l0,0c39.5-53.7,103.1-88.7,174.9-88.7
			c120.1,0,217.4,97.5,217.4,217.5c0,47.1-15.1,90.5-40.5,126.1l0.4,0.2C1471.6,595,1202.3,747.4,897,747.4
			c-495.4,0-897-401.7-897-897c0-495.4,401.6-897,897-897c298,0,561.8,145.7,724.9,369.3C1654.7-639.2,1674.6-589.7,1674.6-535.4"/>
		<path id="path32" class="st1" d="M2025.9,178.9c-116,0-217.7-60.2-276.2-150.7C1686.9-64.3,1581.3-125,1461.4-125
			c-110.7,0-209.3,51.7-273.1,132.2c-55.6,102.4-164,171.7-288.7,171.7c-181.5,0-328.7-147-328.7-328.7
			c0-181.6,147.2-328.6,328.7-328.6c117,0,219.5,61.3,277.8,153.6c63.3,88.7,166.7,146.9,284.1,146.9c120,0,225.9-60.8,288.6-153.2
			l1.5,0.6c58.9-89.2,159.6-147.9,274.4-147.9c181.4,0,328.7,147,328.7,328.6C2354.6,31.9,2207.3,178.9,2025.9,178.9"/>
	</g>
</g>
</svg>
